  0
SECTION
  2
HEADER
  9
$ACADVER
  1
AC1014
  9
$EXTMIN
 10
70.16401489310567
 20
112.369642808922
 30
0.0
  9
$EXTMAX
 10
277.0834797641999
 20
227.1366601424358
 30
0.0
  9
$HANDSEED
  5
56
  9
$MEASUREMENT
 70
1
  0
ENDSEC
  0
SECTION
  2
TABLES
  0
TABLE
  2
VPORT
  5
8
330
0
100
AcDbSymbolTable
 70
     4
  0
VPORT
  5
2E
330
8
100
AcDbSymbolTableRecord
100
AcDbViewportTableRecord
  2
*ACTIVE
 70
     0
 10
0.0
 20
0.0
 11
1.0
 21
1.0
 12
209.9999999999999
 22
148.4999999999999
 13
0.0
 23
0.0
 14
10.0
 24
10.0
 15
10.0
 25
10.0
 16
0.0
 26
0.0
 36
1.0
 17
0.0
 27
0.0
 37
0.0
 40
340.9950045922664
 41
1.239944521497919
 42
50.0
 43
0.0
 44
0.0
 50
0.0
 51
0.0
 71
     0
 72
   100
 73
     1
 74
     3
 75
     0
 76
     0
 77
     0
 78
     0
  0
ENDTAB
  0
TABLE
  2
LTYPE
  5
5
330
0
100
AcDbSymbolTable
 70
     1
  0
LTYPE
  5
14
330
5
100
AcDbSymbolTableRecord
100
AcDbLinetypeTableRecord
  2
BYBLOCK
 70
     0
  3

 72
    65
 73
     0
 40
0.0
  0
LTYPE
  5
15
330
5
100
AcDbSymbolTableRecord
100
AcDbLinetypeTableRecord
  2
BYLAYER
 70
     0
  3

 72
    65
 73
     0
 40
0.0
  0
LTYPE
  5
16
330
5
100
AcDbSymbolTableRecord
100
AcDbLinetypeTableRecord
  2
CONTINUOUS
 70
     0
  3
Solid line
 72
    65
 73
     0
 40
0.0
  0
ENDTAB
  0
TABLE
  2
LAYER
  5
2
330
0
100
AcDbSymbolTable
 70
1
  0
LAYER
  5
10
330
2
100
AcDbSymbolTableRecord
100
AcDbLayerTableRecord
  2
0
 70
     0
 62
     7
  6
CONTINUOUS
  0
ENDTAB
  0
TABLE
  2
STYLE
  5
3
330
0
100
AcDbSymbolTable
 70
     1
  0
STYLE
  5
11
330
3
100
AcDbSymbolTableRecord
100
AcDbTextStyleTableRecord
  2
STANDARD
 70
     0
 40
0.0
 41
1.0
 50
0.0
 71
     0
 42
2.5
  3
txt
  4

  0
ENDTAB
  0
TABLE
  2
VIEW
  5
6
330
0
100
AcDbSymbolTable
 70
     0
  0
ENDTAB
  0
TABLE
  2
UCS
  5
7
330
0
100
AcDbSymbolTable
 70
     0
  0
ENDTAB
  0
TABLE
  2
APPID
  5
9
330
0
100
AcDbSymbolTable
 70
     2
  0
APPID
  5
12
330
9
100
AcDbSymbolTableRecord
100
AcDbRegAppTableRecord
  2
ACAD
 70
     0
  0
APPID
  5
2B
330
9
100
AcDbSymbolTableRecord
100
AcDbRegAppTableRecord
  2
URBANX
 70
     0
  0
ENDTAB
  0
TABLE
  2
DIMSTYLE
  5
A
330
0
100
AcDbSymbolTable
 70
     1
  0
DIMSTYLE
105
27
330
A
100
AcDbSymbolTableRecord
100
AcDbDimStyleTableRecord
  2
ISO-25
 70
     0
  3

  4

  5

  6

  7

 40
1.0
 41
2.5
 42
0.625
 43
3.75
 44
1.25
 45
0.0
 46
0.0
 47
0.0
 48
0.0
140
2.5
141
2.5
142
0.0
143
0.03937007874016
144
1.0
145
0.0
146
1.0
147
0.625
 71
     0
 72
     0
 73
     0
 74
     0
 75
     0
 76
     0
 77
     1
 78
     8
170
     0
171
     3
172
     1
173
     0
174
     0
175
     0
176
     0
177
     0
178
     0
270
     2
271
     2
272
     2
273
     2
274
     3
340
11
275
     0
280
     0
281
     0
282
     0
283
     0
284
     8
285
     0
286
     0
287
     3
288
     0
  0
ENDTAB
  0
TABLE
  2
BLOCK_RECORD
  5
1
330
0
100
AcDbSymbolTable
 70
     1
  0
BLOCK_RECORD
  5
1F
102
{ACAD_XDICTIONARY
360
52
102
}
330
1
100
AcDbSymbolTableRecord
100
AcDbBlockTableRecord
  2
*MODEL_SPACE
  0
BLOCK_RECORD
  5
1B
102
{ACAD_XDICTIONARY
360
50
102
}
330
1
100
AcDbSymbolTableRecord
100
AcDbBlockTableRecord
  2
*PAPER_SPACE
  0
ENDTAB
  0
ENDSEC
  0
SECTION
  2
BLOCKS
  0
BLOCK
  5
20
330
1F
100
AcDbEntity
  8
0
100
AcDbBlockBegin
  2
*MODEL_SPACE
 70
     0
 10
0.0
 20
0.0
 30
0.0
  3
*MODEL_SPACE
  1

  0
ENDBLK
  5
21
330
1F
100
AcDbEntity
  8
0
100
AcDbBlockEnd
  0
BLOCK
  5
1C
330
1B
100
AcDbEntity
 67
     1
  8
0
100
AcDbBlockBegin
  2
*PAPER_SPACE
  1

  0
ENDBLK
  5
1D
330
1B
100
AcDbEntity
 67
     1
  8
0
100
AcDbBlockEnd
  0
ENDSEC
  0
SECTION
  2
ENTITIES
  0
SPLINE
  5
ff
100
AcDbEntity
  8
0
100
AcDbSpline
210
0.0
220
0.0
230
1.0
 62
     0
 70
     0
 71
     3
 72
     8
 73
4
 40
0.0
 40
0.0
 40
0.0
 40
0.0
 40
1.0
 40
1.0
 40
1.0
 40
1.0
 10
0.348644
 20
22.7142
 30
0.0
 10
0.322461
 20
22.7073
 30
0.0
 10
0.292144
 20
22.6742
 30
0.0
 10
0.278364
 20
22.6384
 30
0.0
  0
SPLINE
  5
100
100
AcDbEntity
  8
0
100
AcDbSpline
210
0.0
220
0.0
230
1.0
 62
     0
 70
     0
 71
     3
 72
     8
 73
4
 40
0.0
 40
0.0
 40
0.0
 40
0.0
 40
1.0
 40
1.0
 40
1.0
 40
1.0
 10
0.278364
 20
22.6384
 30
0.0
 10
0.23151
 20
22.5171
 30
0.0
 10
0.246669
 20
0.376206
 30
0.0
 10
0.293522
 20
0.310059
 30
0.0
  0
LINE
  5
101
100
AcDbEntity
  8
0
100
AcDbLine
 62
     0
 10
0.293522
 20
0.310059
 30
0.0
 11
0.332107
 21
0.253559
 31
0.0
  0
LINE
  5
102
100
AcDbEntity
  8
0
100
AcDbLine
 62
     0
 10
0.332107
 20
0.253559
 30
0.0
 11
24.1928
 21
0.253559
 31
0.0
  0
SPLINE
  5
103
100
AcDbEntity
  8
0
100
AcDbSpline
210
0.0
220
0.0
230
1.0
 62
     0
 70
     0
 71
     3
 72
     8
 73
4
 40
0.0
 40
0.0
 40
0.0
 40
0.0
 40
1.0
 40
1.0
 40
1.0
 40
1.0
 10
24.1928
 20
0.253559
 30
0.0
 10
45.8516
 20
0.253559
 30
0.0
 10
48.0579
 20
0.257693
 30
0.0
 10
48.0935
 20
0.293522
 30
0.0
  0
SPLINE
  5
104
100
AcDbEntity
  8
0
100
AcDbSpline
210
0.0
220
0.0
230
1.0
 62
     0
 70
     0
 71
     3
 72
     8
 73
4
 40
0.0
 40
0.0
 40
0.0
 40
0.0
 40
1.0
 40
1.0
 40
1.0
 40
1.0
 10
48.0935
 20
0.293522
 30
0.0
 10
48.1295
 20
0.329351
 30
0.0
 10
48.1334
 20
1.38217
 30
0.0
 10
48.1334
 20
11.4928
 30
0.0
  0
LINE
  5
105
100
AcDbEntity
  8
0
100
AcDbLine
 62
     0
 10
48.1334
 20
11.4928
 30
0.0
 11
48.1334
 21
22.6536
 31
0.0
  0
LINE
  5
106
100
AcDbEntity
  8
0
100
AcDbLine
 62
     0
 10
48.1334
 20
22.6536
 30
0.0
 11
48.0769
 21
22.6935
 31
0.0
  0
SPLINE
  5
107
100
AcDbEntity
  8
0
100
AcDbSpline
210
0.0
220
0.0
230
1.0
 62
     0
 70
     0
 71
     3
 72
     8
 73
4
 40
0.0
 40
0.0
 40
0.0
 40
0.0
 40
1.0
 40
1.0
 40
1.0
 40
1.0
 10
48.0769
 20
22.6935
 30
0.0
 10
48.0219
 20
22.7321
 30
0.0
 10
0.494714
 20
22.7528
 30
0.0
 10
0.348644
 20
22.7142
 30
0.0
  0
LINE
  5
108
100
AcDbEntity
  8
0
100
AcDbLine
 62
     0
 10
0.348644
 20
22.7142
 30
0.0
 11
0.348644
 21
22.7142
 31
0.0
  0
LINE
  5
109
100
AcDbEntity
  8
0
100
AcDbLine
 62
     7
 10
47.8786
 20
11.4928
 30
0.0
 11
47.8786
 21
0.508497
 31
0.0
  0
LINE
  5
10a
100
AcDbEntity
  8
0
100
AcDbLine
 62
     7
 10
47.8786
 20
0.508497
 30
0.0
 11
24.1928
 21
0.508497
 31
0.0
  0
LINE
  5
10b
100
AcDbEntity
  8
0
100
AcDbLine
 62
     7
 10
24.1928
 20
0.508497
 30
0.0
 11
0.508497
 21
0.508497
 31
0.0
  0
LINE
  5
10c
100
AcDbEntity
  8
0
100
AcDbLine
 62
     7
 10
0.508497
 20
0.508497
 30
0.0
 11
0.508497
 21
11.4928
 31
0.0
  0
LINE
  5
10d
100
AcDbEntity
  8
0
100
AcDbLine
 62
     7
 10
0.508497
 20
11.4928
 30
0.0
 11
0.508497
 21
22.4786
 31
0.0
  0
LINE
  5
10e
100
AcDbEntity
  8
0
100
AcDbLine
 62
     7
 10
0.508497
 20
22.4786
 30
0.0
 11
24.1928
 21
22.4786
 31
0.0
  0
LINE
  5
10f
100
AcDbEntity
  8
0
100
AcDbLine
 62
     7
 10
24.1928
 20
22.4786
 30
0.0
 11
47.8786
 21
22.4786
 31
0.0
  0
LINE
  5
110
100
AcDbEntity
  8
0
100
AcDbLine
 62
     7
 10
47.8786
 20
22.4786
 30
0.0
 11
47.8786
 21
11.4928
 31
0.0
  0
SPLINE
  5
111
100
AcDbEntity
  8
0
100
AcDbSpline
210
0.0
220
0.0
230
1.0
 62
     0
 70
     0
 71
     3
 72
     8
 73
4
 40
0.0
 40
0.0
 40
0.0
 40
0.0
 40
1.0
 40
1.0
 40
1.0
 40
1.0
 10
9.75374
 20
18.4905
 30
0.0
 10
8.85666
 20
18.3334
 30
0.0
 10
8.60309
 20
17.1552
 30
0.0
 10
9.35965
 20
16.6619
 30
0.0
  0
SPLINE
  5
112
100
AcDbEntity
  8
0
100
AcDbSpline
210
0.0
220
0.0
230
1.0
 62
     0
 70
     0
 71
     3
 72
     8
 73
4
 40
0.0
 40
0.0
 40
0.0
 40
0.0
 40
1.0
 40
1.0
 40
1.0
 40
1.0
 10
9.35965
 20
16.6619
 30
0.0
 10
9.60632
 20
16.5006
 30
0.0
 10
9.69038
 20
16.4841
 30
0.0
 10
10.254
 20
16.4841
 30
0.0
  0
LINE
  5
113
100
AcDbEntity
  8
0
100
AcDbLine
 62
     0
 10
10.254
 20
16.4841
 30
0.0
 11
10.7473
 21
16.4841
 31
0.0
  0
LINE
  5
114
100
AcDbEntity
  8
0
100
AcDbLine
 62
     0
 10
10.7473
 20
16.4841
 30
0.0
 11
11.0877
 21
16.1506
 31
0.0
  0
LINE
  5
115
100
AcDbEntity
  8
0
100
AcDbLine
 62
     0
 10
11.0877
 20
16.1506
 30
0.0
 11
11.4294
 21
15.8171
 31
0.0
  0
LINE
  5
116
100
AcDbEntity
  8
0
100
AcDbLine
 62
     0
 10
11.4294
 20
15.8171
 30
0.0
 11
11.4294
 21
14.7602
 31
0.0
  0
SPLINE
  5
117
100
AcDbEntity
  8
0
100
AcDbSpline
210
0.0
220
0.0
230
1.0
 62
     0
 70
     0
 71
     3
 72
     8
 73
4
 40
0.0
 40
0.0
 40
0.0
 40
0.0
 40
1.0
 40
1.0
 40
1.0
 40
1.0
 10
11.4294
 20
14.7602
 30
0.0
 10
11.4294
 20
13.6315
 30
0.0
 10
11.4405
 20
13.4882
 30
0.0
 10
11.5452
 20
13.2608
 30
0.0
  0
SPLINE
  5
118
100
AcDbEntity
  8
0
100
AcDbSpline
210
0.0
220
0.0
230
1.0
 62
     0
 70
     0
 71
     3
 72
     8
 73
4
 40
0.0
 40
0.0
 40
0.0
 40
0.0
 40
1.0
 40
1.0
 40
1.0
 40
1.0
 10
11.5452
 20
13.2608
 30
0.0
 10
11.6513
 20
13.0252
 30
0.0
 10
13.0487
 20
11.643
 30
0.0
 10
13.2967
 20
11.5259
 30
0.0
  0
LINE
  5
119
100
AcDbEntity
  8
0
100
AcDbLine
 62
     0
 10
13.2967
 20
11.5259
 30
0.0
 11
13.4745
 21
11.4432
 31
0.0
  0
LINE
  5
11a
100
AcDbEntity
  8
0
100
AcDbLine
 62
     0
 10
13.4745
 20
11.4432
 30
0.0
 11
19.101
 21
11.4363
 31
0.0
  0
LINE
  5
11b
100
AcDbEntity
  8
0
100
AcDbLine
 62
     0
 10
19.101
 20
11.4363
 30
0.0
 11
24.7275
 21
11.4294
 31
0.0
  0
LINE
  5
11c
100
AcDbEntity
  8
0
100
AcDbLine
 62
     0
 10
24.7275
 20
11.4294
 30
0.0
 11
25.6977
 21
10.4593
 31
0.0
  0
LINE
  5
11d
100
AcDbEntity
  8
0
100
AcDbLine
 62
     0
 10
25.6977
 20
10.4593
 30
0.0
 11
26.6678
 21
9.48916
 31
0.0
  0
LINE
  5
11e
100
AcDbEntity
  8
0
100
AcDbLine
 62
     0
 10
26.6678
 20
9.48916
 30
0.0
 11
26.6761
 21
8.31783
 31
0.0
  0
SPLINE
  5
11f
100
AcDbEntity
  8
0
100
AcDbSpline
210
0.0
220
0.0
230
1.0
 62
     0
 70
     0
 71
     3
 72
     8
 73
4
 40
0.0
 40
0.0
 40
0.0
 40
0.0
 40
1.0
 40
1.0
 40
1.0
 40
1.0
 10
26.6761
 20
8.31783
 30
0.0
 10
26.6857
 20
7.0225
 30
0.0
 10
26.6774
 20
7.08865
 30
0.0
 10
26.8676
 20
6.80201
 30
0.0
  0
SPLINE
  5
120
100
AcDbEntity
  8
0
100
AcDbSpline
210
0.0
220
0.0
230
1.0
 62
     0
 70
     0
 71
     3
 72
     8
 73
4
 40
0.0
 40
0.0
 40
0.0
 40
0.0
 40
1.0
 40
1.0
 40
1.0
 40
1.0
 10
26.8676
 20
6.80201
 30
0.0
 10
27.2714
 20
6.19291
 30
0.0
 10
28.134
 20
6.20254
 30
0.0
 10
28.5295
 20
6.8199
 30
0.0
  0
SPLINE
  5
121
100
AcDbEntity
  8
0
100
AcDbSpline
210
0.0
220
0.0
230
1.0
 62
     0
 70
     0
 71
     3
 72
     8
 73
4
 40
0.0
 40
0.0
 40
0.0
 40
0.0
 40
1.0
 40
1.0
 40
1.0
 40
1.0
 10
28.5295
 20
6.8199
 30
0.0
 10
28.7087
 20
7.09828
 30
0.0
 10
28.7045
 20
7.05556
 30
0.0
 10
28.6963
 20
8.68715
 30
0.0
  0
LINE
  5
122
100
AcDbEntity
  8
0
100
AcDbLine
 62
     0
 10
28.6963
 20
8.68715
 30
0.0
 11
28.6894
 21
10.1479
 31
0.0
  0
LINE
  5
123
100
AcDbEntity
  8
0
100
AcDbLine
 62
     0
 10
28.6894
 20
10.1479
 30
0.0
 11
28.6053
 21
10.3256
 31
0.0
  0
SPLINE
  5
124
100
AcDbEntity
  8
0
100
AcDbSpline
210
0.0
220
0.0
230
1.0
 62
     0
 70
     0
 71
     3
 72
     8
 73
4
 40
0.0
 40
0.0
 40
0.0
 40
0.0
 40
1.0
 40
1.0
 40
1.0
 40
1.0
 10
28.6053
 20
10.3256
 30
0.0
 10
28.4868
 20
10.5765
 30
0.0
 10
25.841
 20
13.2374
 30
0.0
 10
25.6012
 20
13.3477
 30
0.0
  0
SPLINE
  5
125
100
AcDbEntity
  8
0
100
AcDbSpline
210
0.0
220
0.0
230
1.0
 62
     0
 70
     0
 71
     3
 72
     8
 73
4
 40
0.0
 40
0.0
 40
0.0
 40
0.0
 40
1.0
 40
1.0
 40
1.0
 40
1.0
 10
25.6012
 20
13.3477
 30
0.0
 10
25.3476
 20
13.4634
 30
0.0
 10
25.3876
 20
13.4621
 30
0.0
 10
19.6467
 20
13.4621
 30
0.0
  0
LINE
  5
126
100
AcDbEntity
  8
0
100
AcDbLine
 62
     0
 10
19.6467
 20
13.4621
 30
0.0
 11
14.1345
 21
13.4621
 31
0.0
  0
LINE
  5
127
100
AcDbEntity
  8
0
100
AcDbLine
 62
     0
 10
14.1345
 20
13.4621
 30
0.0
 11
13.7997
 21
13.7983
 31
0.0
  0
LINE
  5
128
100
AcDbEntity
  8
0
100
AcDbLine
 62
     0
 10
13.7997
 20
13.7983
 30
0.0
 11
13.4648
 21
14.1345
 31
0.0
  0
LINE
  5
129
100
AcDbEntity
  8
0
100
AcDbLine
 62
     0
 10
13.4648
 20
14.1345
 30
0.0
 11
13.4565
 21
15.3155
 31
0.0
  0
LINE
  5
12a
100
AcDbEntity
  8
0
100
AcDbLine
 62
     0
 10
13.4565
 20
15.3155
 30
0.0
 11
13.4497
 21
16.4979
 31
0.0
  0
LINE
  5
12b
100
AcDbEntity
  8
0
100
AcDbLine
 62
     0
 10
13.4497
 20
16.4979
 30
0.0
 11
13.3656
 21
16.6756
 31
0.0
  0
SPLINE
  5
12c
100
AcDbEntity
  8
0
100
AcDbSpline
210
0.0
220
0.0
230
1.0
 62
     0
 70
     0
 71
     3
 72
     8
 73
4
 40
0.0
 40
0.0
 40
0.0
 40
0.0
 40
1.0
 40
1.0
 40
1.0
 40
1.0
 10
13.3656
 20
16.6756
 30
0.0
 10
13.2457
 20
16.9306
 30
0.0
 10
11.8622
 20
18.2838
 30
0.0
 10
11.5948
 20
18.4051
 30
0.0
  0
SPLINE
  5
12d
100
AcDbEntity
  8
0
100
AcDbSpline
210
0.0
220
0.0
230
1.0
 62
     0
 70
     0
 71
     3
 72
     8
 73
4
 40
0.0
 40
0.0
 40
0.0
 40
0.0
 40
1.0
 40
1.0
 40
1.0
 40
1.0
 10
11.5948
 20
18.4051
 30
0.0
 10
11.3675
 20
18.5098
 30
0.0
 10
10.1782
 20
18.5636
 30
0.0
 10
9.75374
 20
18.4905
 30
0.0
  0
LINE
  5
12e
100
AcDbEntity
  8
0
100
AcDbLine
 62
     0
 10
9.75374
 20
18.4905
 30
0.0
 11
9.75374
 21
18.4905
 31
0.0
  0
SPLINE
  5
12f
100
AcDbEntity
  8
0
100
AcDbSpline
210
0.0
220
0.0
230
1.0
 62
     0
 70
     0
 71
     3
 72
     8
 73
4
 40
0.0
 40
0.0
 40
0.0
 40
0.0
 40
1.0
 40
1.0
 40
1.0
 40
1.0
 10
19.914
 20
18.4905
 30
0.0
 10
19.5667
 20
18.4285
 30
0.0
 10
19.2498
 20
18.1556
 30
0.0
 10
19.1051
 20
17.7974
 30
0.0
  0
SPLINE
  5
130
100
AcDbEntity
  8
0
100
AcDbSpline
210
0.0
220
0.0
230
1.0
 62
     0
 70
     0
 71
     3
 72
     8
 73
4
 40
0.0
 40
0.0
 40
0.0
 40
0.0
 40
1.0
 40
1.0
 40
1.0
 40
1.0
 10
19.1051
 20
17.7974
 30
0.0
 10
19.0459
 20
17.6485
 30
0.0
 10
19.039
 20
14.8621
 30
0.0
 10
19.0982
 20
14.694
 30
0.0
  0
SPLINE
  5
131
100
AcDbEntity
  8
0
100
AcDbSpline
210
0.0
220
0.0
230
1.0
 62
     0
 70
     0
 71
     3
 72
     8
 73
4
 40
0.0
 40
0.0
 40
0.0
 40
0.0
 40
1.0
 40
1.0
 40
1.0
 40
1.0
 10
19.0982
 20
14.694
 30
0.0
 10
19.4331
 20
13.7418
 30
0.0
 10
20.756
 20
13.7487
 30
0.0
 10
21.0454
 20
14.7037
 30
0.0
  0
SPLINE
  5
132
100
AcDbEntity
  8
0
100
AcDbSpline
210
0.0
220
0.0
230
1.0
 62
     0
 70
     0
 71
     3
 72
     8
 73
4
 40
0.0
 40
0.0
 40
0.0
 40
0.0
 40
1.0
 40
1.0
 40
1.0
 40
1.0
 10
21.0454
 20
14.7037
 30
0.0
 10
21.0991
 20
14.8773
 30
0.0
 10
21.0991
 20
17.5893
 30
0.0
 10
21.0454
 20
17.7643
 30
0.0
  0
SPLINE
  5
133
100
AcDbEntity
  8
0
100
AcDbSpline
210
0.0
220
0.0
230
1.0
 62
     0
 70
     0
 71
     3
 72
     8
 73
4
 40
0.0
 40
0.0
 40
0.0
 40
0.0
 40
1.0
 40
1.0
 40
1.0
 40
1.0
 10
21.0454
 20
17.7643
 30
0.0
 10
20.9021
 20
18.2425
 30
0.0
 10
20.3812
 20
18.576
 30
0.0
 10
19.914
 20
18.4905
 30
0.0
  0
LINE
  5
134
100
AcDbEntity
  8
0
100
AcDbLine
 62
     0
 10
19.914
 20
18.4905
 30
0.0
 11
19.914
 21
18.4905
 31
0.0
  0
SPLINE
  5
135
100
AcDbEntity
  8
0
100
AcDbSpline
210
0.0
220
0.0
230
1.0
 62
     0
 70
     0
 71
     3
 72
     8
 73
4
 40
0.0
 40
0.0
 40
0.0
 40
0.0
 40
1.0
 40
1.0
 40
1.0
 40
1.0
 10
22.4276
 20
18.4905
 30
0.0
 10
22.0803
 20
18.4285
 30
0.0
 10
21.7634
 20
18.1556
 30
0.0
 10
21.6201
 20
17.7974
 30
0.0
  0
SPLINE
  5
136
100
AcDbEntity
  8
0
100
AcDbSpline
210
0.0
220
0.0
230
1.0
 62
     0
 70
     0
 71
     3
 72
     8
 73
4
 40
0.0
 40
0.0
 40
0.0
 40
0.0
 40
1.0
 40
1.0
 40
1.0
 40
1.0
 10
21.6201
 20
17.7974
 30
0.0
 10
21.5608
 20
17.6485
 30
0.0
 10
21.5539
 20
14.8621
 30
0.0
 10
21.6131
 20
14.694
 30
0.0
  0
SPLINE
  5
137
100
AcDbEntity
  8
0
100
AcDbSpline
210
0.0
220
0.0
230
1.0
 62
     0
 70
     0
 71
     3
 72
     8
 73
4
 40
0.0
 40
0.0
 40
0.0
 40
0.0
 40
1.0
 40
1.0
 40
1.0
 40
1.0
 10
21.6131
 20
14.694
 30
0.0
 10
21.948
 20
13.7418
 30
0.0
 10
23.2695
 20
13.7487
 30
0.0
 10
23.5603
 20
14.7037
 30
0.0
  0
SPLINE
  5
138
100
AcDbEntity
  8
0
100
AcDbSpline
210
0.0
220
0.0
230
1.0
 62
     0
 70
     0
 71
     3
 72
     8
 73
4
 40
0.0
 40
0.0
 40
0.0
 40
0.0
 40
1.0
 40
1.0
 40
1.0
 40
1.0
 10
23.5603
 20
14.7037
 30
0.0
 10
23.6127
 20
14.8773
 30
0.0
 10
23.6127
 20
17.5893
 30
0.0
 10
23.5603
 20
17.7643
 30
0.0
  0
SPLINE
  5
139
100
AcDbEntity
  8
0
100
AcDbSpline
210
0.0
220
0.0
230
1.0
 62
     0
 70
     0
 71
     3
 72
     8
 73
4
 40
0.0
 40
0.0
 40
0.0
 40
0.0
 40
1.0
 40
1.0
 40
1.0
 40
1.0
 10
23.5603
 20
17.7643
 30
0.0
 10
23.417
 20
18.2425
 30
0.0
 10
22.8961
 20
18.576
 30
0.0
 10
22.4276
 20
18.4905
 30
0.0
  0
LINE
  5
13a
100
AcDbEntity
  8
0
100
AcDbLine
 62
     0
 10
22.4276
 20
18.4905
 30
0.0
 11
22.4276
 21
18.4905
 31
0.0
  0
SPLINE
  5
13b
100
AcDbEntity
  8
0
100
AcDbSpline
210
0.0
220
0.0
230
1.0
 62
     0
 70
     0
 71
     3
 72
     8
 73
4
 40
0.0
 40
0.0
 40
0.0
 40
0.0
 40
1.0
 40
1.0
 40
1.0
 40
1.0
 10
24.9935
 20
18.4905
 30
0.0
 10
24.6462
 20
18.4285
 30
0.0
 10
24.3292
 20
18.1556
 30
0.0
 10
24.186
 20
17.7974
 30
0.0
  0
SPLINE
  5
13c
100
AcDbEntity
  8
0
100
AcDbSpline
210
0.0
220
0.0
230
1.0
 62
     0
 70
     0
 71
     3
 72
     8
 73
4
 40
0.0
 40
0.0
 40
0.0
 40
0.0
 40
1.0
 40
1.0
 40
1.0
 40
1.0
 10
24.186
 20
17.7974
 30
0.0
 10
24.1253
 20
17.6485
 30
0.0
 10
24.1184
 20
14.8621
 30
0.0
 10
24.1777
 20
14.694
 30
0.0
  0
SPLINE
  5
13d
100
AcDbEntity
  8
0
100
AcDbSpline
210
0.0
220
0.0
230
1.0
 62
     0
 70
     0
 71
     3
 72
     8
 73
4
 40
0.0
 40
0.0
 40
0.0
 40
0.0
 40
1.0
 40
1.0
 40
1.0
 40
1.0
 10
24.1777
 20
14.694
 30
0.0
 10
24.5139
 20
13.7418
 30
0.0
 10
25.8355
 20
13.7487
 30
0.0
 10
26.1262
 20
14.7037
 30
0.0
  0
SPLINE
  5
13e
100
AcDbEntity
  8
0
100
AcDbSpline
210
0.0
220
0.0
230
1.0
 62
     0
 70
     0
 71
     3
 72
     8
 73
4
 40
0.0
 40
0.0
 40
0.0
 40
0.0
 40
1.0
 40
1.0
 40
1.0
 40
1.0
 10
26.1262
 20
14.7037
 30
0.0
 10
26.1786
 20
14.8773
 30
0.0
 10
26.1786
 20
17.5893
 30
0.0
 10
26.1262
 20
17.7643
 30
0.0
  0
SPLINE
  5
13f
100
AcDbEntity
  8
0
100
AcDbSpline
210
0.0
220
0.0
230
1.0
 62
     0
 70
     0
 71
     3
 72
     8
 73
4
 40
0.0
 40
0.0
 40
0.0
 40
0.0
 40
1.0
 40
1.0
 40
1.0
 40
1.0
 10
26.1262
 20
17.7643
 30
0.0
 10
25.9815
 20
18.2425
 30
0.0
 10
25.462
 20
18.576
 30
0.0
 10
24.9935
 20
18.4905
 30
0.0
  0
LINE
  5
140
100
AcDbEntity
  8
0
100
AcDbLine
 62
     0
 10
24.9935
 20
18.4905
 30
0.0
 11
24.9935
 21
18.4905
 31
0.0
  0
SPLINE
  5
141
100
AcDbEntity
  8
0
100
AcDbSpline
210
0.0
220
0.0
230
1.0
 62
     0
 70
     0
 71
     3
 72
     8
 73
4
 40
0.0
 40
0.0
 40
0.0
 40
0.0
 40
1.0
 40
1.0
 40
1.0
 40
1.0
 10
30.0729
 20
18.4905
 30
0.0
 10
29.7257
 20
18.4285
 30
0.0
 10
29.4087
 20
18.1556
 30
0.0
 10
29.2654
 20
17.7974
 30
0.0
  0
SPLINE
  5
142
100
AcDbEntity
  8
0
100
AcDbSpline
210
0.0
220
0.0
230
1.0
 62
     0
 70
     0
 71
     3
 72
     8
 73
4
 40
0.0
 40
0.0
 40
0.0
 40
0.0
 40
1.0
 40
1.0
 40
1.0
 40
1.0
 10
29.2654
 20
17.7974
 30
0.0
 10
29.2062
 20
17.6485
 30
0.0
 10
29.1992
 20
14.8621
 30
0.0
 10
29.2585
 20
14.694
 30
0.0
  0
SPLINE
  5
143
100
AcDbEntity
  8
0
100
AcDbSpline
210
0.0
220
0.0
230
1.0
 62
     0
 70
     0
 71
     3
 72
     8
 73
4
 40
0.0
 40
0.0
 40
0.0
 40
0.0
 40
1.0
 40
1.0
 40
1.0
 40
1.0
 10
29.2585
 20
14.694
 30
0.0
 10
29.5934
 20
13.7418
 30
0.0
 10
30.9163
 20
13.7487
 30
0.0
 10
31.2057
 20
14.7037
 30
0.0
  0
SPLINE
  5
144
100
AcDbEntity
  8
0
100
AcDbSpline
210
0.0
220
0.0
230
1.0
 62
     0
 70
     0
 71
     3
 72
     8
 73
4
 40
0.0
 40
0.0
 40
0.0
 40
0.0
 40
1.0
 40
1.0
 40
1.0
 40
1.0
 10
31.2057
 20
14.7037
 30
0.0
 10
31.2581
 20
14.8773
 30
0.0
 10
31.2581
 20
17.5893
 30
0.0
 10
31.2057
 20
17.7643
 30
0.0
  0
SPLINE
  5
145
100
AcDbEntity
  8
0
100
AcDbSpline
210
0.0
220
0.0
230
1.0
 62
     0
 70
     0
 71
     3
 72
     8
 73
4
 40
0.0
 40
0.0
 40
0.0
 40
0.0
 40
1.0
 40
1.0
 40
1.0
 40
1.0
 10
31.2057
 20
17.7643
 30
0.0
 10
31.0624
 20
18.2425
 30
0.0
 10
30.5415
 20
18.576
 30
0.0
 10
30.0729
 20
18.4905
 30
0.0
  0
LINE
  5
146
100
AcDbEntity
  8
0
100
AcDbLine
 62
     0
 10
30.0729
 20
18.4905
 30
0.0
 11
30.0729
 21
18.4905
 31
0.0
  0
SPLINE
  5
147
100
AcDbEntity
  8
0
100
AcDbSpline
210
0.0
220
0.0
230
1.0
 62
     0
 70
     0
 71
     3
 72
     8
 73
4
 40
0.0
 40
0.0
 40
0.0
 40
0.0
 40
1.0
 40
1.0
 40
1.0
 40
1.0
 10
32.614
 20
18.4905
 30
0.0
 10
32.3549
 20
18.4437
 30
0.0
 10
32.1028
 20
18.2797
 30
0.0
 10
31.9526
 20
18.0592
 30
0.0
  0
SPLINE
  5
148
100
AcDbEntity
  8
0
100
AcDbSpline
210
0.0
220
0.0
230
1.0
 62
     0
 70
     0
 71
     3
 72
     8
 73
4
 40
0.0
 40
0.0
 40
0.0
 40
0.0
 40
1.0
 40
1.0
 40
1.0
 40
1.0
 10
31.9526
 20
18.0592
 30
0.0
 10
31.7528
 20
17.7643
 30
0.0
 10
31.7624
 20
17.8635
 30
0.0
 10
31.7624
 20
16.2429
 30
0.0
  0
SPLINE
  5
149
100
AcDbEntity
  8
0
100
AcDbSpline
210
0.0
220
0.0
230
1.0
 62
     0
 70
     0
 71
     3
 72
     8
 73
4
 40
0.0
 40
0.0
 40
0.0
 40
0.0
 40
1.0
 40
1.0
 40
1.0
 40
1.0
 10
31.7624
 20
16.2429
 30
0.0
 10
31.7624
 20
14.643
 30
0.0
 10
31.7569
 20
14.705
 30
0.0
 10
31.9319
 20
14.4473
 30
0.0
  0
SPLINE
  5
14a
100
AcDbEntity
  8
0
100
AcDbSpline
210
0.0
220
0.0
230
1.0
 62
     0
 70
     0
 71
     3
 72
     8
 73
4
 40
0.0
 40
0.0
 40
0.0
 40
0.0
 40
1.0
 40
1.0
 40
1.0
 40
1.0
 10
31.9319
 20
14.4473
 30
0.0
 10
31.9843
 20
14.3688
 30
0.0
 10
32.0298
 20
14.293
 30
0.0
 10
32.0298
 20
14.282
 30
0.0
  0
SPLINE
  5
14b
100
AcDbEntity
  8
0
100
AcDbSpline
210
0.0
220
0.0
230
1.0
 62
     0
 70
     0
 71
     3
 72
     8
 73
4
 40
0.0
 40
0.0
 40
0.0
 40
0.0
 40
1.0
 40
1.0
 40
1.0
 40
1.0
 10
32.0298
 20
14.282
 30
0.0
 10
32.0325
 20
14.2462
 30
0.0
 10
32.3825
 20
14.0408
 30
0.0
 10
32.5038
 20
14.005
 30
0.0
  0
SPLINE
  5
14c
100
AcDbEntity
  8
0
100
AcDbSpline
210
0.0
220
0.0
230
1.0
 62
     0
 70
     0
 71
     3
 72
     8
 73
4
 40
0.0
 40
0.0
 40
0.0
 40
0.0
 40
1.0
 40
1.0
 40
1.0
 40
1.0
 10
32.5038
 20
14.005
 30
0.0
 10
33.0013
 20
13.8548
 30
0.0
 10
33.5883
 20
14.1855
 30
0.0
 10
33.7454
 20
14.7037
 30
0.0
  0
SPLINE
  5
14d
100
AcDbEntity
  8
0
100
AcDbSpline
210
0.0
220
0.0
230
1.0
 62
     0
 70
     0
 71
     3
 72
     8
 73
4
 40
0.0
 40
0.0
 40
0.0
 40
0.0
 40
1.0
 40
1.0
 40
1.0
 40
1.0
 10
33.7454
 20
14.7037
 30
0.0
 10
33.7978
 20
14.8773
 30
0.0
 10
33.7991
 20
17.5893
 30
0.0
 10
33.7454
 20
17.7643
 30
0.0
  0
SPLINE
  5
14e
100
AcDbEntity
  8
0
100
AcDbSpline
210
0.0
220
0.0
230
1.0
 62
     0
 70
     0
 71
     3
 72
     8
 73
4
 40
0.0
 40
0.0
 40
0.0
 40
0.0
 40
1.0
 40
1.0
 40
1.0
 40
1.0
 10
33.7454
 20
17.7643
 30
0.0
 10
33.6021
 20
18.2425
 30
0.0
 10
33.0812
 20
18.576
 30
0.0
 10
32.614
 20
18.4905
 30
0.0
  0
LINE
  5
14f
100
AcDbEntity
  8
0
100
AcDbLine
 62
     0
 10
32.614
 20
18.4905
 30
0.0
 11
32.614
 21
18.4905
 31
0.0
  0
SPLINE
  5
150
100
AcDbEntity
  8
0
100
AcDbSpline
210
0.0
220
0.0
230
1.0
 62
     0
 70
     0
 71
     3
 72
     8
 73
4
 40
0.0
 40
0.0
 40
0.0
 40
0.0
 40
1.0
 40
1.0
 40
1.0
 40
1.0
 10
35.1537
 20
18.4919
 30
0.0
 10
34.8947
 20
18.4437
 30
0.0
 10
34.6411
 20
18.2783
 30
0.0
 10
34.4909
 20
18.0564
 30
0.0
  0
SPLINE
  5
151
100
AcDbEntity
  8
0
100
AcDbSpline
210
0.0
220
0.0
230
1.0
 62
     0
 70
     0
 71
     3
 72
     8
 73
4
 40
0.0
 40
0.0
 40
0.0
 40
0.0
 40
1.0
 40
1.0
 40
1.0
 40
1.0
 10
34.4909
 20
18.0564
 30
0.0
 10
34.2911
 20
17.7629
 30
0.0
 10
34.3035
 20
17.8966
 30
0.0
 10
34.2952
 20
15.9136
 30
0.0
  0
LINE
  5
152
100
AcDbEntity
  8
0
100
AcDbLine
 62
     0
 10
34.2952
 20
15.9136
 30
0.0
 11
34.287
 21
14.1345
 31
0.0
  0
LINE
  5
153
100
AcDbEntity
  8
0
100
AcDbLine
 62
     0
 10
34.287
 20
14.1345
 30
0.0
 11
33.9521
 21
13.7983
 31
0.0
  0
LINE
  5
154
100
AcDbEntity
  8
0
100
AcDbLine
 62
     0
 10
33.9521
 20
13.7983
 30
0.0
 11
33.6173
 21
13.4621
 31
0.0
  0
LINE
  5
155
100
AcDbEntity
  8
0
100
AcDbLine
 62
     0
 10
33.6173
 20
13.4621
 30
0.0
 11
31.4965
 21
13.4621
 31
0.0
  0
LINE
  5
156
100
AcDbEntity
  8
0
100
AcDbLine
 62
     0
 10
31.4965
 20
13.4621
 30
0.0
 11
29.3756
 21
13.4621
 31
0.0
  0
LINE
  5
157
100
AcDbEntity
  8
0
100
AcDbLine
 62
     0
 10
29.3756
 20
13.4621
 30
0.0
 11
29.038
 21
13.7983
 31
0.0
  0
LINE
  5
158
100
AcDbEntity
  8
0
100
AcDbLine
 62
     0
 10
29.038
 20
13.7983
 30
0.0
 11
28.7018
 21
14.1345
 31
0.0
  0
LINE
  5
159
100
AcDbEntity
  8
0
100
AcDbLine
 62
     0
 10
28.7018
 20
14.1345
 30
0.0
 11
28.7018
 21
14.6334
 31
0.0
  0
SPLINE
  5
15a
100
AcDbEntity
  8
0
100
AcDbSpline
210
0.0
220
0.0
230
1.0
 62
     0
 70
     0
 71
     3
 72
     8
 73
4
 40
0.0
 40
0.0
 40
0.0
 40
0.0
 40
1.0
 40
1.0
 40
1.0
 40
1.0
 10
28.7018
 20
14.6334
 30
0.0
 10
28.7018
 20
15.2025
 30
0.0
 10
28.6852
 20
15.2852
 30
0.0
 10
28.5254
 20
15.5319
 30
0.0
  0
SPLINE
  5
15b
100
AcDbEntity
  8
0
100
AcDbSpline
210
0.0
220
0.0
230
1.0
 62
     0
 70
     0
 71
     3
 72
     8
 73
4
 40
0.0
 40
0.0
 40
0.0
 40
0.0
 40
1.0
 40
1.0
 40
1.0
 40
1.0
 10
28.5254
 20
15.5319
 30
0.0
 10
28.0679
 20
16.2333
 30
0.0
 10
27.0385
 20
16.0914
 30
0.0
 10
26.727
 20
15.2838
 30
0.0
  0
SPLINE
  5
15c
100
AcDbEntity
  8
0
100
AcDbSpline
210
0.0
220
0.0
230
1.0
 62
     0
 70
     0
 71
     3
 72
     8
 73
4
 40
0.0
 40
0.0
 40
0.0
 40
0.0
 40
1.0
 40
1.0
 40
1.0
 40
1.0
 10
26.727
 20
15.2838
 30
0.0
 10
26.6168
 20
14.9958
 30
0.0
 10
26.6581
 20
13.5406
 30
0.0
 10
26.7836
 20
13.2636
 30
0.0
  0
SPLINE
  5
15d
100
AcDbEntity
  8
0
100
AcDbSpline
210
0.0
220
0.0
230
1.0
 62
     0
 70
     0
 71
     3
 72
     8
 73
4
 40
0.0
 40
0.0
 40
0.0
 40
0.0
 40
1.0
 40
1.0
 40
1.0
 40
1.0
 10
26.7836
 20
13.2636
 30
0.0
 10
26.8911
 20
13.028
 30
0.0
 10
28.2884
 20
11.643
 30
0.0
 10
28.5364
 20
11.5259
 30
0.0
  0
LINE
  5
15e
100
AcDbEntity
  8
0
100
AcDbLine
 62
     0
 10
28.5364
 20
11.5259
 30
0.0
 11
28.7142
 21
11.4432
 31
0.0
  0
LINE
  5
15f
100
AcDbEntity
  8
0
100
AcDbLine
 62
     0
 10
28.7142
 20
11.4432
 30
0.0
 11
31.4524
 21
11.4363
 31
0.0
  0
SPLINE
  5
160
100
AcDbEntity
  8
0
100
AcDbSpline
210
0.0
220
0.0
230
1.0
 62
     0
 70
     0
 71
     3
 72
     8
 73
4
 40
0.0
 40
0.0
 40
0.0
 40
0.0
 40
1.0
 40
1.0
 40
1.0
 40
1.0
 10
31.4524
 20
11.4363
 30
0.0
 10
34.4647
 20
11.4294
 30
0.0
 10
34.3214
 20
11.4226
 30
0.0
 10
34.5846
 20
11.5866
 30
0.0
  0
SPLINE
  5
161
100
AcDbEntity
  8
0
100
AcDbSpline
210
0.0
220
0.0
230
1.0
 62
     0
 70
     0
 71
     3
 72
     8
 73
4
 40
0.0
 40
0.0
 40
0.0
 40
0.0
 40
1.0
 40
1.0
 40
1.0
 40
1.0
 10
34.5846
 20
11.5866
 30
0.0
 10
34.75
 20
11.6899
 30
0.0
 10
36.0948
 20
13.0376
 30
0.0
 10
36.1805
 20
13.1851
 30
0.0
  0
SPLINE
  5
162
100
AcDbEntity
  8
0
100
AcDbSpline
210
0.0
220
0.0
230
1.0
 62
     0
 70
     0
 71
     3
 72
     8
 73
4
 40
0.0
 40
0.0
 40
0.0
 40
0.0
 40
1.0
 40
1.0
 40
1.0
 40
1.0
 10
36.1805
 20
13.1851
 30
0.0
 10
36.3252
 20
13.4372
 30
0.0
 10
36.3224
 20
13.3753
 30
0.0
 10
36.3224
 20
15.598
 30
0.0
  0
SPLINE
  5
163
100
AcDbEntity
  8
0
100
AcDbSpline
210
0.0
220
0.0
230
1.0
 62
     0
 70
     0
 71
     3
 72
     8
 73
4
 40
0.0
 40
0.0
 40
0.0
 40
0.0
 40
1.0
 40
1.0
 40
1.0
 40
1.0
 10
36.3224
 20
15.598
 30
0.0
 10
36.3224
 20
17.8745
 30
0.0
 10
36.3305
 20
17.7629
 30
0.0
 10
36.1446
 20
18.0468
 30
0.0
  0
SPLINE
  5
164
100
AcDbEntity
  8
0
100
AcDbSpline
210
0.0
220
0.0
230
1.0
 62
     0
 70
     0
 71
     3
 72
     8
 73
4
 40
0.0
 40
0.0
 40
0.0
 40
0.0
 40
1.0
 40
1.0
 40
1.0
 40
1.0
 10
36.1446
 20
18.0468
 30
0.0
 10
35.9322
 20
18.372
 30
0.0
 10
35.5191
 20
18.5581
 30
0.0
 10
35.1537
 20
18.4919
 30
0.0
  0
LINE
  5
165
100
AcDbEntity
  8
0
100
AcDbLine
 62
     0
 10
35.1537
 20
18.4919
 30
0.0
 11
35.1537
 21
18.4919
 31
0.0
  0
SPLINE
  5
166
100
AcDbEntity
  8
0
100
AcDbSpline
210
0.0
220
0.0
230
1.0
 62
     0
 70
     0
 71
     3
 72
     8
 73
4
 40
0.0
 40
0.0
 40
0.0
 40
0.0
 40
1.0
 40
1.0
 40
1.0
 40
1.0
 10
9.75374
 20
15.977
 30
0.0
 10
9.40788
 20
15.9136
 30
0.0
 10
9.08678
 20
15.6393
 30
0.0
 10
8.94761
 20
15.2838
 30
0.0
  0
SPLINE
  5
167
100
AcDbEntity
  8
0
100
AcDbSpline
210
0.0
220
0.0
230
1.0
 62
     0
 70
     0
 71
     3
 72
     8
 73
4
 40
0.0
 40
0.0
 40
0.0
 40
0.0
 40
1.0
 40
1.0
 40
1.0
 40
1.0
 10
8.94761
 20
15.2838
 30
0.0
 10
8.89663
 20
15.1543
 30
0.0
 10
8.86629
 20
12.598
 30
0.0
 10
8.91177
 20
12.3031
 30
0.0
  0
SPLINE
  5
168
100
AcDbEntity
  8
0
100
AcDbSpline
210
0.0
220
0.0
230
1.0
 62
     0
 70
     0
 71
     3
 72
     8
 73
4
 40
0.0
 40
0.0
 40
0.0
 40
0.0
 40
1.0
 40
1.0
 40
1.0
 40
1.0
 10
8.91177
 20
12.3031
 30
0.0
 10
8.96691
 20
11.9476
 30
0.0
 10
8.94073
 20
11.9793
 30
0.0
 10
10.4593
 20
10.4593
 30
0.0
  0
SPLINE
  5
169
100
AcDbEntity
  8
0
100
AcDbSpline
210
0.0
220
0.0
230
1.0
 62
     0
 70
     0
 71
     3
 72
     8
 73
4
 40
0.0
 40
0.0
 40
0.0
 40
0.0
 40
1.0
 40
1.0
 40
1.0
 40
1.0
 10
10.4593
 20
10.4593
 30
0.0
 10
11.7657
 20
9.1543
 30
0.0
 10
11.8594
 20
9.06473
 30
0.0
 10
12.0275
 20
8.9862
 30
0.0
  0
LINE
  5
16a
100
AcDbEntity
  8
0
100
AcDbLine
 62
     0
 10
12.0275
 20
8.9862
 30
0.0
 11
12.2053
 21
8.90214
 31
0.0
  0
LINE
  5
16b
100
AcDbEntity
  8
0
100
AcDbLine
 62
     0
 10
12.2053
 20
8.90214
 30
0.0
 11
17.8194
 21
8.88972
 31
0.0
  0
LINE
  5
16c
100
AcDbEntity
  8
0
100
AcDbLine
 62
     0
 10
17.8194
 20
8.88972
 30
0.0
 11
23.4335
 21
8.87734
 31
0.0
  0
LINE
  5
16d
100
AcDbEntity
  8
0
100
AcDbLine
 62
     0
 10
23.4335
 20
8.87734
 30
0.0
 11
23.7794
 21
8.55073
 31
0.0
  0
LINE
  5
16e
100
AcDbEntity
  8
0
100
AcDbLine
 62
     0
 10
23.7794
 20
8.55073
 30
0.0
 11
24.1253
 21
8.22413
 31
0.0
  0
LINE
  5
16f
100
AcDbEntity
  8
0
100
AcDbLine
 62
     0
 10
24.1253
 20
8.22413
 30
0.0
 11
24.1363
 21
7.68809
 31
0.0
  0
SPLINE
  5
170
100
AcDbEntity
  8
0
100
AcDbSpline
210
0.0
220
0.0
230
1.0
 62
     0
 70
     0
 71
     3
 72
     8
 73
4
 40
0.0
 40
0.0
 40
0.0
 40
0.0
 40
1.0
 40
1.0
 40
1.0
 40
1.0
 10
24.1363
 20
7.68809
 30
0.0
 10
24.1501
 20
7.08865
 30
0.0
 10
24.1556
 20
7.06381
 30
0.0
 10
24.3292
 20
6.80201
 30
0.0
  0
SPLINE
  5
171
100
AcDbEntity
  8
0
100
AcDbSpline
210
0.0
220
0.0
230
1.0
 62
     0
 70
     0
 71
     3
 72
     8
 73
4
 40
0.0
 40
0.0
 40
0.0
 40
0.0
 40
1.0
 40
1.0
 40
1.0
 40
1.0
 10
24.3292
 20
6.80201
 30
0.0
 10
24.7317
 20
6.19291
 30
0.0
 10
25.5943
 20
6.20254
 30
0.0
 10
25.9912
 20
6.8199
 30
0.0
  0
SPLINE
  5
172
100
AcDbEntity
  8
0
100
AcDbSpline
210
0.0
220
0.0
230
1.0
 62
     0
 70
     0
 71
     3
 72
     8
 73
4
 40
0.0
 40
0.0
 40
0.0
 40
0.0
 40
1.0
 40
1.0
 40
1.0
 40
1.0
 10
25.9912
 20
6.8199
 30
0.0
 10
26.1634
 20
7.08723
 30
0.0
 10
26.1662
 20
7.11757
 30
0.0
 10
26.1579
 20
8.05187
 30
0.0
  0
LINE
  5
173
100
AcDbEntity
  8
0
100
AcDbLine
 62
     0
 10
26.1579
 20
8.05187
 30
0.0
 11
26.1497
 21
8.87734
 31
0.0
  0
LINE
  5
174
100
AcDbEntity
  8
0
100
AcDbLine
 62
     0
 10
26.1497
 20
8.87734
 30
0.0
 11
26.067
 21
9.0551
 31
0.0
  0
SPLINE
  5
175
100
AcDbEntity
  8
0
100
AcDbSpline
210
0.0
220
0.0
230
1.0
 62
     0
 70
     0
 71
     3
 72
     8
 73
4
 40
0.0
 40
0.0
 40
0.0
 40
0.0
 40
1.0
 40
1.0
 40
1.0
 40
1.0
 10
26.067
 20
9.0551
 30
0.0
 10
25.9237
 20
9.3624
 30
0.0
 10
24.5126
 20
10.728
 30
0.0
 10
24.2135
 20
10.8493
 30
0.0
  0
LINE
  5
176
100
AcDbEntity
  8
0
100
AcDbLine
 62
     0
 10
24.2135
 20
10.8493
 30
0.0
 11
24.0661
 21
10.9099
 31
0.0
  0
LINE
  5
177
100
AcDbEntity
  8
0
100
AcDbLine
 62
     0
 10
24.0661
 20
10.9099
 30
0.0
 11
18.4657
 21
10.9154
 31
0.0
  0
LINE
  5
178
100
AcDbEntity
  8
0
100
AcDbLine
 62
     0
 10
18.4657
 20
10.9154
 30
0.0
 11
12.8654
 21
10.9223
 31
0.0
  0
LINE
  5
179
100
AcDbEntity
  8
0
100
AcDbLine
 62
     0
 10
12.8654
 20
10.9223
 30
0.0
 11
11.8938
 21
11.8938
 31
0.0
  0
LINE
  5
17a
100
AcDbEntity
  8
0
100
AcDbLine
 62
     0
 10
11.8938
 20
11.8938
 30
0.0
 11
10.9223
 21
12.8654
 31
0.0
  0
LINE
  5
17b
100
AcDbEntity
  8
0
100
AcDbLine
 62
     0
 10
10.9223
 20
12.8654
 30
0.0
 11
10.9223
 21
13.9981
 31
0.0
  0
SPLINE
  5
17c
100
AcDbEntity
  8
0
100
AcDbSpline
210
0.0
220
0.0
230
1.0
 62
     0
 70
     0
 71
     3
 72
     8
 73
4
 40
0.0
 40
0.0
 40
0.0
 40
0.0
 40
1.0
 40
1.0
 40
1.0
 40
1.0
 10
10.9223
 20
13.9981
 30
0.0
 10
10.9223
 20
15.2631
 30
0.0
 10
10.9223
 20
15.2604
 30
0.0
 10
10.7446
 20
15.5319
 30
0.0
  0
SPLINE
  5
17d
100
AcDbEntity
  8
0
100
AcDbSpline
210
0.0
220
0.0
230
1.0
 62
     0
 70
     0
 71
     3
 72
     8
 73
4
 40
0.0
 40
0.0
 40
0.0
 40
0.0
 40
1.0
 40
1.0
 40
1.0
 40
1.0
 10
10.7446
 20
15.5319
 30
0.0
 10
10.5324
 20
15.8585
 30
0.0
 10
10.1189
 20
16.0431
 30
0.0
 10
9.75374
 20
15.977
 30
0.0
  0
LINE
  5
17e
100
AcDbEntity
  8
0
100
AcDbLine
 62
     0
 10
9.75374
 20
15.977
 30
0.0
 11
9.75374
 21
15.977
 31
0.0
  0
SPLINE
  5
17f
100
AcDbEntity
  8
0
100
AcDbSpline
210
0.0
220
0.0
230
1.0
 62
     0
 70
     0
 71
     3
 72
     8
 73
4
 40
0.0
 40
0.0
 40
0.0
 40
0.0
 40
1.0
 40
1.0
 40
1.0
 40
1.0
 10
14.6885
 20
15.9384
 30
0.0
 10
14.0615
 20
15.74
 30
0.0
 10
13.7942
 20
14.9683
 30
0.0
 10
14.1607
 20
14.4143
 30
0.0
  0
SPLINE
  5
180
100
AcDbEntity
  8
0
100
AcDbSpline
210
0.0
220
0.0
230
1.0
 62
     0
 70
     0
 71
     3
 72
     8
 73
4
 40
0.0
 40
0.0
 40
0.0
 40
0.0
 40
1.0
 40
1.0
 40
1.0
 40
1.0
 10
14.1607
 20
14.4143
 30
0.0
 10
14.559
 20
13.8148
 30
0.0
 10
15.4382
 20
13.8148
 30
0.0
 10
15.8364
 20
14.4143
 30
0.0
  0
SPLINE
  5
181
100
AcDbEntity
  8
0
100
AcDbSpline
210
0.0
220
0.0
230
1.0
 62
     0
 70
     0
 71
     3
 72
     8
 73
4
 40
0.0
 40
0.0
 40
0.0
 40
0.0
 40
1.0
 40
1.0
 40
1.0
 40
1.0
 10
15.8364
 20
14.4143
 30
0.0
 10
16.3587
 20
15.2025
 30
0.0
 10
15.5911
 20
16.2223
 30
0.0
 10
14.6885
 20
15.9384
 30
0.0
  0
LINE
  5
182
100
AcDbEntity
  8
0
100
AcDbLine
 62
     0
 10
14.6885
 20
15.9384
 30
0.0
 11
14.6885
 21
15.9384
 31
0.0
  0
SPLINE
  5
183
100
AcDbEntity
  8
0
100
AcDbSpline
210
0.0
220
0.0
230
1.0
 62
     0
 70
     0
 71
     3
 72
     8
 73
4
 40
0.0
 40
0.0
 40
0.0
 40
0.0
 40
1.0
 40
1.0
 40
1.0
 40
1.0
 10
17.2034
 20
15.9384
 30
0.0
 10
16.5764
 20
15.74
 30
0.0
 10
16.3091
 20
14.9683
 30
0.0
 10
16.6756
 20
14.4143
 30
0.0
  0
SPLINE
  5
184
100
AcDbEntity
  8
0
100
AcDbSpline
210
0.0
220
0.0
230
1.0
 62
     0
 70
     0
 71
     3
 72
     8
 73
4
 40
0.0
 40
0.0
 40
0.0
 40
0.0
 40
1.0
 40
1.0
 40
1.0
 40
1.0
 10
16.6756
 20
14.4143
 30
0.0
 10
17.0739
 20
13.8148
 30
0.0
 10
17.9531
 20
13.8148
 30
0.0
 10
18.3513
 20
14.4143
 30
0.0
  0
SPLINE
  5
185
100
AcDbEntity
  8
0
100
AcDbSpline
210
0.0
220
0.0
230
1.0
 62
     0
 70
     0
 71
     3
 72
     8
 73
4
 40
0.0
 40
0.0
 40
0.0
 40
0.0
 40
1.0
 40
1.0
 40
1.0
 40
1.0
 10
18.3513
 20
14.4143
 30
0.0
 10
18.8736
 20
15.2025
 30
0.0
 10
18.1047
 20
16.2223
 30
0.0
 10
17.2034
 20
15.9384
 30
0.0
  0
LINE
  5
186
100
AcDbEntity
  8
0
100
AcDbLine
 62
     0
 10
17.2034
 20
15.9384
 30
0.0
 11
17.2034
 21
15.9384
 31
0.0
  0
SPLINE
  5
187
100
AcDbEntity
  8
0
100
AcDbSpline
210
0.0
220
0.0
230
1.0
 62
     0
 70
     0
 71
     3
 72
     8
 73
4
 40
0.0
 40
0.0
 40
0.0
 40
0.0
 40
1.0
 40
1.0
 40
1.0
 40
1.0
 10
37.6936
 20
10.8961
 30
0.0
 10
37.4343
 20
10.8493
 30
0.0
 10
37.1821
 20
10.6839
 30
0.0
 10
37.0336
 20
10.4648
 30
0.0
  0
SPLINE
  5
188
100
AcDbEntity
  8
0
100
AcDbSpline
210
0.0
220
0.0
230
1.0
 62
     0
 70
     0
 71
     3
 72
     8
 73
4
 40
0.0
 40
0.0
 40
0.0
 40
0.0
 40
1.0
 40
1.0
 40
1.0
 40
1.0
 10
37.0336
 20
10.4648
 30
0.0
 10
36.8473
 20
10.1892
 30
0.0
 10
36.8473
 20
10.1933
 30
0.0
 10
36.8363
 20
9.24112
 30
0.0
  0
LINE
  5
189
100
AcDbEntity
  8
0
100
AcDbLine
 62
     0
 10
36.8363
 20
9.24112
 30
0.0
 11
36.8254
 21
8.38398
 31
0.0
  0
LINE
  5
18a
100
AcDbEntity
  8
0
100
AcDbLine
 62
     0
 10
36.8254
 20
8.38398
 30
0.0
 11
34.699
 21
8.3771
 31
0.0
  0
SPLINE
  5
18b
100
AcDbEntity
  8
0
100
AcDbSpline
210
0.0
220
0.0
230
1.0
 62
     0
 70
     0
 71
     3
 72
     8
 73
4
 40
0.0
 40
0.0
 40
0.0
 40
0.0
 40
1.0
 40
1.0
 40
1.0
 40
1.0
 10
34.699
 20
8.3771
 30
0.0
 10
32.326
 20
8.36884
 30
0.0
 10
32.5065
 20
8.3826
 30
0.0
 10
32.2075
 20
8.18003
 30
0.0
  0
SPLINE
  5
18c
100
AcDbEntity
  8
0
100
AcDbSpline
210
0.0
220
0.0
230
1.0
 62
     0
 70
     0
 71
     3
 72
     8
 73
4
 40
0.0
 40
0.0
 40
0.0
 40
0.0
 40
1.0
 40
1.0
 40
1.0
 40
1.0
 10
32.2075
 20
8.18003
 30
0.0
 10
31.5075
 20
7.7046
 30
0.0
 10
31.6839
 20
6.63113
 30
0.0
 10
32.5024
 20
6.38447
 30
0.0
  0
SPLINE
  5
18d
100
AcDbEntity
  8
0
100
AcDbSpline
210
0.0
220
0.0
230
1.0
 62
     0
 70
     0
 71
     3
 72
     8
 73
4
 40
0.0
 40
0.0
 40
0.0
 40
0.0
 40
1.0
 40
1.0
 40
1.0
 40
1.0
 10
32.5024
 20
6.38447
 30
0.0
 10
32.6802
 20
6.33208
 30
0.0
 10
37.9511
 20
6.33208
 30
0.0
 10
38.1275
 20
6.38584
 30
0.0
  0
SPLINE
  5
18e
100
AcDbEntity
  8
0
100
AcDbSpline
210
0.0
220
0.0
230
1.0
 62
     0
 70
     0
 71
     3
 72
     8
 73
4
 40
0.0
 40
0.0
 40
0.0
 40
0.0
 40
1.0
 40
1.0
 40
1.0
 40
1.0
 10
38.1275
 20
6.38584
 30
0.0
 10
38.4309
 20
6.47679
 30
0.0
 10
38.7354
 20
6.78134
 30
0.0
 10
38.8264
 20
7.08448
 30
0.0
  0
SPLINE
  5
18f
100
AcDbEntity
  8
0
100
AcDbSpline
210
0.0
220
0.0
230
1.0
 62
     0
 70
     0
 71
     3
 72
     8
 73
4
 40
0.0
 40
0.0
 40
0.0
 40
0.0
 40
1.0
 40
1.0
 40
1.0
 40
1.0
 10
38.8264
 20
7.08448
 30
0.0
 10
38.8786
 20
7.25812
 30
0.0
 10
38.8786
 20
9.9949
 30
0.0
 10
38.825
 20
10.1699
 30
0.0
  0
SPLINE
  5
190
100
AcDbEntity
  8
0
100
AcDbSpline
210
0.0
220
0.0
230
1.0
 62
     0
 70
     0
 71
     3
 72
     8
 73
4
 40
0.0
 40
0.0
 40
0.0
 40
0.0
 40
1.0
 40
1.0
 40
1.0
 40
1.0
 10
38.825
 20
10.1699
 30
0.0
 10
38.6814
 20
10.6481
 30
0.0
 10
38.1621
 20
10.9816
 30
0.0
 10
37.6936
 20
10.8961
 30
0.0
  0
LINE
  5
191
100
AcDbEntity
  8
0
100
AcDbLine
 62
     0
 10
37.6936
 20
10.8961
 30
0.0
 11
37.6936
 21
10.8961
 31
0.0
  0
SPLINE
  5
192
100
AcDbEntity
  8
0
100
AcDbSpline
210
0.0
220
0.0
230
1.0
 62
     0
 70
     0
 71
     3
 72
     8
 73
4
 40
0.0
 40
0.0
 40
0.0
 40
0.0
 40
1.0
 40
1.0
 40
1.0
 40
1.0
 10
5.35919
 20
10.491
 30
0.0
 10
2.12631
 20
9.94392
 30
0.0
 10
0.537436
 20
6.27422
 30
0.0
 10
2.35782
 20
3.55395
 30
0.0
  0
SPLINE
  5
193
100
AcDbEntity
  8
0
100
AcDbSpline
210
0.0
220
0.0
230
1.0
 62
     0
 70
     0
 71
     3
 72
     8
 73
4
 40
0.0
 40
0.0
 40
0.0
 40
0.0
 40
1.0
 40
1.0
 40
1.0
 40
1.0
 10
2.35782
 20
3.55395
 30
0.0
 10
4.49379
 20
0.358292
 30
0.0
 10
9.42855
 20
1.19063
 30
0.0
 10
10.4262
 20
4.91546
 30
0.0
  0
SPLINE
  5
194
100
AcDbEntity
  8
0
100
AcDbSpline
210
0.0
220
0.0
230
1.0
 62
     0
 70
     0
 71
     3
 72
     8
 73
4
 40
0.0
 40
0.0
 40
0.0
 40
0.0
 40
1.0
 40
1.0
 40
1.0
 40
1.0
 10
10.4262
 20
4.91546
 30
0.0
 10
11.2586
 20
8.02569
 30
0.0
 10
8.53144
 20
11.0284
 30
0.0
 10
5.35919
 20
10.491
 30
0.0
  0
LINE
  5
195
100
AcDbEntity
  8
0
100
AcDbLine
 62
     0
 10
5.35919
 20
10.491
 30
0.0
 11
5.35919
 21
10.491
 31
0.0
  0
SPLINE
  5
196
100
AcDbEntity
  8
0
100
AcDbSpline
210
0.0
220
0.0
230
1.0
 62
     0
 70
     0
 71
     3
 72
     8
 73
4
 40
0.0
 40
0.0
 40
0.0
 40
0.0
 40
1.0
 40
1.0
 40
1.0
 40
1.0
 10
19.914
 20
8.35642
 30
0.0
 10
19.6549
 20
8.30958
 30
0.0
 10
19.4028
 20
8.14419
 30
0.0
 10
19.2526
 20
7.92508
 30
0.0
  0
SPLINE
  5
197
100
AcDbEntity
  8
0
100
AcDbSpline
210
0.0
220
0.0
230
1.0
 62
     0
 70
     0
 71
     3
 72
     8
 73
4
 40
0.0
 40
0.0
 40
0.0
 40
0.0
 40
1.0
 40
1.0
 40
1.0
 40
1.0
 10
19.2526
 20
7.92508
 30
0.0
 10
19.0528
 20
7.6302
 30
0.0
 10
19.0624
 20
7.73218
 30
0.0
 10
19.0624
 20
6.08267
 30
0.0
  0
LINE
  5
198
100
AcDbEntity
  8
0
100
AcDbLine
 62
     0
 10
19.0624
 20
6.08267
 30
0.0
 11
19.0624
 21
4.60954
 31
0.0
  0
LINE
  5
199
100
AcDbEntity
  8
0
100
AcDbLine
 62
     0
 10
19.0624
 20
4.60954
 30
0.0
 11
19.1216
 21
4.46486
 31
0.0
  0
SPLINE
  5
19a
100
AcDbEntity
  8
0
100
AcDbSpline
210
0.0
220
0.0
230
1.0
 62
     0
 70
     0
 71
     3
 72
     8
 73
4
 40
0.0
 40
0.0
 40
0.0
 40
0.0
 40
1.0
 40
1.0
 40
1.0
 40
1.0
 10
19.1216
 20
4.46486
 30
0.0
 10
19.2071
 20
4.25125
 30
0.0
 10
19.2553
 20
4.19887
 30
0.0
 10
20.6788
 20
2.76297
 30
0.0
  0
SPLINE
  5
19b
100
AcDbEntity
  8
0
100
AcDbSpline
210
0.0
220
0.0
230
1.0
 62
     0
 70
     0
 71
     3
 72
     8
 73
4
 40
0.0
 40
0.0
 40
0.0
 40
0.0
 40
1.0
 40
1.0
 40
1.0
 40
1.0
 10
20.6788
 20
2.76297
 30
0.0
 10
21.9163
 20
1.51584
 30
0.0
 10
21.9935
 20
1.4428
 30
0.0
 10
22.1616
 20
1.36563
 30
0.0
  0
LINE
  5
19c
100
AcDbEntity
  8
0
100
AcDbLine
 62
     0
 10
22.1616
 20
1.36563
 30
0.0
 11
22.3394
 21
1.28295
 31
0.0
  0
LINE
  5
19d
100
AcDbEntity
  8
0
100
AcDbLine
 62
     0
 10
22.3394
 20
1.28295
 30
0.0
 11
32.7022
 21
1.27468
 31
0.0
  0
SPLINE
  5
19e
100
AcDbEntity
  8
0
100
AcDbSpline
210
0.0
220
0.0
230
1.0
 62
     0
 70
     0
 71
     3
 72
     8
 73
4
 40
0.0
 40
0.0
 40
0.0
 40
0.0
 40
1.0
 40
1.0
 40
1.0
 40
1.0
 10
32.7022
 20
1.27468
 30
0.0
 10
43.5225
 20
1.2678
 30
0.0
 10
43.1655
 20
1.26366
 30
0.0
 10
43.3836
 20
1.37253
 30
0.0
  0
SPLINE
  5
19f
100
AcDbEntity
  8
0
100
AcDbSpline
210
0.0
220
0.0
230
1.0
 62
     0
 70
     0
 71
     3
 72
     8
 73
4
 40
0.0
 40
0.0
 40
0.0
 40
0.0
 40
1.0
 40
1.0
 40
1.0
 40
1.0
 10
43.3836
 20
1.37253
 30
0.0
 10
43.531
 20
1.44694
 30
0.0
 10
43.604
 20
1.51584
 30
0.0
 10
44.946
 20
2.87045
 30
0.0
  0
SPLINE
  5
1a0
100
AcDbEntity
  8
0
100
AcDbSpline
210
0.0
220
0.0
230
1.0
 62
     0
 70
     0
 71
     3
 72
     8
 73
4
 40
0.0
 40
0.0
 40
0.0
 40
0.0
 40
1.0
 40
1.0
 40
1.0
 40
1.0
 10
44.946
 20
2.87045
 30
0.0
 10
46.2442
 20
4.17823
 30
0.0
 10
46.3419
 20
4.28985
 30
0.0
 10
46.4178
 20
4.53651
 30
0.0
  0
SPLINE
  5
1a1
100
AcDbEntity
  8
0
100
AcDbSpline
210
0.0
220
0.0
230
1.0
 62
     0
 70
     0
 71
     3
 72
     8
 73
4
 40
0.0
 40
0.0
 40
0.0
 40
0.0
 40
1.0
 40
1.0
 40
1.0
 40
1.0
 10
46.4178
 20
4.53651
 30
0.0
 10
46.4714
 20
4.71565
 30
0.0
 10
46.4742
 20
7.44968
 30
0.0
 10
46.4206
 20
7.6302
 30
0.0
  0
SPLINE
  5
1a2
100
AcDbEntity
  8
0
100
AcDbSpline
210
0.0
220
0.0
230
1.0
 62
     0
 70
     0
 71
     3
 72
     8
 73
4
 40
0.0
 40
0.0
 40
0.0
 40
0.0
 40
1.0
 40
1.0
 40
1.0
 40
1.0
 10
46.4206
 20
7.6302
 30
0.0
 10
46.174
 20
8.44737
 30
0.0
 10
45.1033
 20
8.62376
 30
0.0
 10
44.6278
 20
7.92508
 30
0.0
  0
SPLINE
  5
1a3
100
AcDbEntity
  8
0
100
AcDbSpline
210
0.0
220
0.0
230
1.0
 62
     0
 70
     0
 71
     3
 72
     8
 73
4
 40
0.0
 40
0.0
 40
0.0
 40
0.0
 40
1.0
 40
1.0
 40
1.0
 40
1.0
 10
44.6278
 20
7.92508
 30
0.0
 10
44.4334
 20
7.63845
 30
0.0
 10
44.4405
 20
7.69084
 30
0.0
 10
44.4306
 20
6.38859
 30
0.0
  0
LINE
  5
1a4
100
AcDbEntity
  8
0
100
AcDbLine
 62
     0
 10
44.4306
 20
6.38859
 30
0.0
 11
44.4225
 21
5.22002
 31
0.0
  0
LINE
  5
1a5
100
AcDbEntity
  8
0
100
AcDbLine
 62
     0
 10
44.4225
 20
5.22002
 30
0.0
 11
43.4647
 21
4.26089
 31
0.0
  0
LINE
  5
1a6
100
AcDbEntity
  8
0
100
AcDbLine
 62
     0
 10
43.4647
 20
4.26089
 30
0.0
 11
42.5069
 21
3.30178
 31
0.0
  0
LINE
  5
1a7
100
AcDbEntity
  8
0
100
AcDbLine
 62
     0
 10
42.5069
 20
3.30178
 30
0.0
 11
32.7518
 21
3.30178
 31
0.0
  0
LINE
  5
1a8
100
AcDbEntity
  8
0
100
AcDbLine
 62
     0
 10
32.7518
 20
3.30178
 30
0.0
 11
22.9967
 21
3.30178
 31
0.0
  0
LINE
  5
1a9
100
AcDbEntity
  8
0
100
AcDbLine
 62
     0
 10
22.9967
 20
3.30178
 30
0.0
 11
22.039
 21
4.27743
 31
0.0
  0
LINE
  5
1aa
100
AcDbEntity
  8
0
100
AcDbLine
 62
     0
 10
22.039
 20
4.27743
 30
0.0
 11
21.0826
 21
5.25307
 31
0.0
  0
LINE
  5
1ab
100
AcDbEntity
  8
0
100
AcDbLine
 62
     0
 10
21.0826
 20
5.25307
 30
0.0
 11
21.0826
 21
6.38309
 31
0.0
  0
SPLINE
  5
1ac
100
AcDbEntity
  8
0
100
AcDbSpline
210
0.0
220
0.0
230
1.0
 62
     0
 70
     0
 71
     3
 72
     8
 73
4
 40
0.0
 40
0.0
 40
0.0
 40
0.0
 40
1.0
 40
1.0
 40
1.0
 40
1.0
 10
21.0826
 20
6.38309
 30
0.0
 10
21.0826
 20
7.64261
 30
0.0
 10
21.0826
 20
7.63986
 30
0.0
 10
20.9048
 20
7.9127
 30
0.0
  0
SPLINE
  5
1ad
100
AcDbEntity
  8
0
100
AcDbSpline
210
0.0
220
0.0
230
1.0
 62
     0
 70
     0
 71
     3
 72
     8
 73
4
 40
0.0
 40
0.0
 40
0.0
 40
0.0
 40
1.0
 40
1.0
 40
1.0
 40
1.0
 10
20.9048
 20
7.9127
 30
0.0
 10
20.6926
 20
8.23793
 30
0.0
 10
20.2792
 20
8.42395
 30
0.0
 10
19.914
 20
8.35642
 30
0.0
  0
LINE
  5
1ae
100
AcDbEntity
  8
0
100
AcDbLine
 62
     0
 10
19.914
 20
8.35642
 30
0.0
 11
19.914
 21
8.35642
 31
0.0
  0
SPLINE
  5
1af
100
AcDbEntity
  8
0
100
AcDbSpline
210
0.0
220
0.0
230
1.0
 62
     0
 70
     0
 71
     3
 72
     8
 73
4
 40
0.0
 40
0.0
 40
0.0
 40
0.0
 40
1.0
 40
1.0
 40
1.0
 40
1.0
 10
22.4276
 20
8.3578
 30
0.0
 10
22.0803
 20
8.29441
 30
0.0
 10
21.7592
 20
8.01882
 30
0.0
 10
21.6228
 20
7.66604
 30
0.0
  0
SPLINE
  5
1b0
100
AcDbEntity
  8
0
100
AcDbSpline
210
0.0
220
0.0
230
1.0
 62
     0
 70
     0
 71
     3
 72
     8
 73
4
 40
0.0
 40
0.0
 40
0.0
 40
0.0
 40
1.0
 40
1.0
 40
1.0
 40
1.0
 10
21.6228
 20
7.66604
 30
0.0
 10
21.5153
 20
7.38628
 30
0.0
 10
21.5511
 20
5.89661
 30
0.0
 10
21.6724
 20
5.63344
 30
0.0
  0
SPLINE
  5
1b1
100
AcDbEntity
  8
0
100
AcDbSpline
210
0.0
220
0.0
230
1.0
 62
     0
 70
     0
 71
     3
 72
     8
 73
4
 40
0.0
 40
0.0
 40
0.0
 40
0.0
 40
1.0
 40
1.0
 40
1.0
 40
1.0
 10
21.6724
 20
5.63344
 30
0.0
 10
21.7923
 20
5.37298
 30
0.0
 10
23.1552
 20
4.03902
 30
0.0
 10
23.439
 20
3.90398
 30
0.0
  0
LINE
  5
1b2
100
AcDbEntity
  8
0
100
AcDbLine
 62
     0
 10
23.439
 20
3.90398
 30
0.0
 11
23.6099
 21
3.82266
 31
0.0
  0
LINE
  5
1b3
100
AcDbEntity
  8
0
100
AcDbLine
 62
     0
 10
23.6099
 20
3.82266
 30
0.0
 11
32.7133
 21
3.81579
 31
0.0
  0
SPLINE
  5
1b4
100
AcDbEntity
  8
0
100
AcDbSpline
210
0.0
220
0.0
230
1.0
 62
     0
 70
     0
 71
     3
 72
     8
 73
4
 40
0.0
 40
0.0
 40
0.0
 40
0.0
 40
1.0
 40
1.0
 40
1.0
 40
1.0
 10
32.7133
 20
3.81579
 30
0.0
 10
42.6695
 20
3.80891
 30
0.0
 10
41.9213
 20
3.79924
 30
0.0
 10
42.1873
 20
3.95358
 30
0.0
  0
SPLINE
  5
1b5
100
AcDbEntity
  8
0
100
AcDbSpline
210
0.0
220
0.0
230
1.0
 62
     0
 70
     0
 71
     3
 72
     8
 73
4
 40
0.0
 40
0.0
 40
0.0
 40
0.0
 40
1.0
 40
1.0
 40
1.0
 40
1.0
 10
42.1873
 20
3.95358
 30
0.0
 10
42.2963
 20
4.01697
 30
0.0
 10
43.5624
 20
5.24069
 30
0.0
 10
43.7222
 20
5.435
 30
0.0
  0
SPLINE
  5
1b6
100
AcDbEntity
  8
0
100
AcDbSpline
210
0.0
220
0.0
230
1.0
 62
     0
 70
     0
 71
     3
 72
     8
 73
4
 40
0.0
 40
0.0
 40
0.0
 40
0.0
 40
1.0
 40
1.0
 40
1.0
 40
1.0
 10
43.7222
 20
5.435
 30
0.0
 10
43.9279
 20
5.68717
 30
0.0
 10
43.9416
 20
5.77123
 30
0.0
 10
43.9416
 20
6.70828
 30
0.0
  0
SPLINE
  5
1b7
100
AcDbEntity
  8
0
100
AcDbSpline
210
0.0
220
0.0
230
1.0
 62
     0
 70
     0
 71
     3
 72
     8
 73
4
 40
0.0
 40
0.0
 40
0.0
 40
0.0
 40
1.0
 40
1.0
 40
1.0
 40
1.0
 10
43.9416
 20
6.70828
 30
0.0
 10
43.9416
 20
7.61227
 30
0.0
 10
43.9374
 20
7.64812
 30
0.0
 10
43.7653
 20
7.9127
 30
0.0
  0
SPLINE
  5
1b8
100
AcDbEntity
  8
0
100
AcDbSpline
210
0.0
220
0.0
230
1.0
 62
     0
 70
     0
 71
     3
 72
     8
 73
4
 40
0.0
 40
0.0
 40
0.0
 40
0.0
 40
1.0
 40
1.0
 40
1.0
 40
1.0
 10
43.7653
 20
7.9127
 30
0.0
 10
43.3751
 20
8.50939
 30
0.0
 10
42.514
 20
8.51627
 30
0.0
 10
42.1128
 20
7.92508
 30
0.0
  0
SPLINE
  5
1b9
100
AcDbEntity
  8
0
100
AcDbSpline
210
0.0
220
0.0
230
1.0
 62
     0
 70
     0
 71
     3
 72
     8
 73
4
 40
0.0
 40
0.0
 40
0.0
 40
0.0
 40
1.0
 40
1.0
 40
1.0
 40
1.0
 10
42.1128
 20
7.92508
 30
0.0
 10
41.9407
 20
7.67017
 30
0.0
 10
41.9294
 20
7.62056
 30
0.0
 10
41.9171
 20
7.0225
 30
0.0
  0
LINE
  5
1ba
100
AcDbEntity
  8
0
100
AcDbLine
 62
     0
 10
41.9171
 20
7.0225
 30
0.0
 11
41.9047
 21
6.48917
 31
0.0
  0
LINE
  5
1bb
100
AcDbEntity
  8
0
100
AcDbLine
 62
     0
 10
41.9047
 20
6.48917
 30
0.0
 11
41.5837
 21
6.16536
 31
0.0
  0
LINE
  5
1bc
100
AcDbEntity
  8
0
100
AcDbLine
 62
     0
 10
41.5837
 20
6.16536
 30
0.0
 11
41.2627
 21
5.84151
 31
0.0
  0
LINE
  5
1bd
100
AcDbEntity
  8
0
100
AcDbLine
 62
     0
 10
41.2627
 20
5.84151
 30
0.0
 11
32.7697
 21
5.84151
 31
0.0
  0
LINE
  5
1be
100
AcDbEntity
  8
0
100
AcDbLine
 62
     0
 10
32.7697
 20
5.84151
 30
0.0
 11
24.2769
 21
5.84151
 31
0.0
  0
LINE
  5
1bf
100
AcDbEntity
  8
0
100
AcDbLine
 62
     0
 10
24.2769
 20
5.84151
 30
0.0
 11
23.9365
 21
6.16398
 31
0.0
  0
LINE
  5
1c0
100
AcDbEntity
  8
0
100
AcDbLine
 62
     0
 10
23.9365
 20
6.16398
 30
0.0
 11
23.5961
 21
6.4878
 31
0.0
  0
LINE
  5
1c1
100
AcDbEntity
  8
0
100
AcDbLine
 62
     0
 10
23.5961
 20
6.4878
 30
0.0
 11
23.5961
 21
7.00045
 31
0.0
  0
SPLINE
  5
1c2
100
AcDbEntity
  8
0
100
AcDbSpline
210
0.0
220
0.0
230
1.0
 62
     0
 70
     0
 71
     3
 72
     8
 73
4
 40
0.0
 40
0.0
 40
0.0
 40
0.0
 40
1.0
 40
1.0
 40
1.0
 40
1.0
 10
23.5961
 20
7.00045
 30
0.0
 10
23.5961
 20
7.58472
 30
0.0
 10
23.581
 20
7.66466
 30
0.0
 10
23.4198
 20
7.9127
 30
0.0
  0
SPLINE
  5
1c3
100
AcDbEntity
  8
0
100
AcDbSpline
210
0.0
220
0.0
230
1.0
 62
     0
 70
     0
 71
     3
 72
     8
 73
4
 40
0.0
 40
0.0
 40
0.0
 40
0.0
 40
1.0
 40
1.0
 40
1.0
 40
1.0
 10
23.4198
 20
7.9127
 30
0.0
 10
23.2076
 20
8.23793
 30
0.0
 10
22.7941
 20
8.42395
 30
0.0
 10
22.4276
 20
8.3578
 30
0.0
  0
LINE
  5
1c4
100
AcDbEntity
  8
0
100
AcDbLine
 62
     0
 10
22.4276
 20
8.3578
 30
0.0
 11
22.4276
 21
8.3578
 31
0.0
  0
SPLINE
  5
1c5
100
AcDbEntity
  8
0
100
AcDbSpline
210
0.0
220
0.0
230
1.0
 62
     0
 70
     0
 71
     3
 72
     8
 73
4
 40
0.0
 40
0.0
 40
0.0
 40
0.0
 40
1.0
 40
1.0
 40
1.0
 40
1.0
 10
14.6885
 20
8.31783
 30
0.0
 10
13.8534
 20
8.05462
 30
0.0
 10
13.7473
 20
6.94806
 30
0.0
 10
14.5107
 20
6.4685
 30
0.0
  0
SPLINE
  5
1c6
100
AcDbEntity
  8
0
100
AcDbSpline
210
0.0
220
0.0
230
1.0
 62
     0
 70
     0
 71
     3
 72
     8
 73
4
 40
0.0
 40
0.0
 40
0.0
 40
0.0
 40
1.0
 40
1.0
 40
1.0
 40
1.0
 10
14.5107
 20
6.4685
 30
0.0
 10
14.9214
 20
6.20945
 30
0.0
 10
15.5512
 20
6.36517
 30
0.0
 10
15.8364
 20
6.7951
 30
0.0
  0
SPLINE
  5
1c7
100
AcDbEntity
  8
0
100
AcDbSpline
210
0.0
220
0.0
230
1.0
 62
     0
 70
     0
 71
     3
 72
     8
 73
4
 40
0.0
 40
0.0
 40
0.0
 40
0.0
 40
1.0
 40
1.0
 40
1.0
 40
1.0
 10
15.8364
 20
6.7951
 30
0.0
 10
16.3587
 20
7.58197
 30
0.0
 10
15.5911
 20
8.60171
 30
0.0
 10
14.6885
 20
8.31783
 30
0.0
  0
LINE
  5
1c8
100
AcDbEntity
  8
0
100
AcDbLine
 62
     0
 10
14.6885
 20
8.31783
 30
0.0
 11
14.6885
 21
8.31783
 31
0.0
  0
SPLINE
  5
1c9
100
AcDbEntity
  8
0
100
AcDbSpline
210
0.0
220
0.0
230
1.0
 62
     0
 70
     0
 71
     3
 72
     8
 73
4
 40
0.0
 40
0.0
 40
0.0
 40
0.0
 40
1.0
 40
1.0
 40
1.0
 40
1.0
 10
17.2034
 20
8.31783
 30
0.0
 10
16.3683
 20
8.05462
 30
0.0
 10
16.2609
 20
6.94806
 30
0.0
 10
17.0257
 20
6.4685
 30
0.0
  0
SPLINE
  5
1ca
100
AcDbEntity
  8
0
100
AcDbSpline
210
0.0
220
0.0
230
1.0
 62
     0
 70
     0
 71
     3
 72
     8
 73
4
 40
0.0
 40
0.0
 40
0.0
 40
0.0
 40
1.0
 40
1.0
 40
1.0
 40
1.0
 10
17.0257
 20
6.4685
 30
0.0
 10
17.4363
 20
6.20945
 30
0.0
 10
18.0661
 20
6.36517
 30
0.0
 10
18.3499
 20
6.7951
 30
0.0
  0
SPLINE
  5
1cb
100
AcDbEntity
  8
0
100
AcDbSpline
210
0.0
220
0.0
230
1.0
 62
     0
 70
     0
 71
     3
 72
     8
 73
4
 40
0.0
 40
0.0
 40
0.0
 40
0.0
 40
1.0
 40
1.0
 40
1.0
 40
1.0
 10
18.3499
 20
6.7951
 30
0.0
 10
18.8736
 20
7.58197
 30
0.0
 10
18.1047
 20
8.60171
 30
0.0
 10
17.2034
 20
8.31783
 30
0.0
  0
LINE
  5
1cc
100
AcDbEntity
  8
0
100
AcDbLine
 62
     0
 10
17.2034
 20
8.31783
 30
0.0
 11
17.2034
 21
8.31783
 31
0.0
  0
ENDSEC
  0
SECTION
  2
OBJECTS
  0
DICTIONARY
  5
C
330
0
100
AcDbDictionary
  3
ACAD_GROUP
350
D
  3
ACAD_LAYOUT
350
1A
  3
ACAD_MLINESTYLE
350
17
  3
ACAD_PLOTSETTINGS
350
19
  3
ACAD_PLOTSTYLENAME
350
E
  3
ACDBHEADERROUNDTRIPXREC
350
2F
  0
DICTIONARY
  5
52
330
1F
100
AcDbDictionary
280
     1
  3
ACAD_LAYOUTSELFREF
360
53
  0
DICTIONARY
  5
50
330
1B
100
AcDbDictionary
280
     1
  3
ACAD_LAYOUTSELFREF
360
51
  0
DICTIONARY
  5
D
102
{ACAD_REACTORS
330
C
102
}
330
C
100
AcDbDictionary
  0
DICTIONARY
  5
1A
102
{ACAD_REACTORS
330
C
102
}
330
C
100
AcDbDictionary
  0
DICTIONARY
  5
17
102
{ACAD_REACTORS
330
C
102
}
330
C
100
AcDbDictionary
  3
STANDARD
350
18
  0
DICTIONARY
  5
19
102
{ACAD_REACTORS
330
C
102
}
330
C
100
AcDbDictionary
  0
ACDBDICTIONARYWDFLT
  5
E
102
{ACAD_REACTORS
330
C
102
}
330
C
100
AcDbDictionary
281
     1
  3
Normal
350
F
100
AcDbDictionaryWithDefault
340
F
  0
DICTIONARY
  5
2F
102
{ACAD_REACTORS
330
C
102
}
330
C
100
AcDbDictionary
  3
CEPSNTYPE
350
39
  3
DIMSTYLEDATA
350
3D
  3
FINGERPRINTGUID
350
3A
  3
HYPERLINKBASE
350
32
  3
INSUNITS
350
38
  3
LAYOUTDICT
350
34
  3
LWETCUNION
350
37
  3
PLOTSETDICT
350
35
  3
PLOTSTYLNAMDICT
350
36
  3
PSVPSCALE
350
3C
  3
PUCSBASE
350
40
  3
PUCSORGBACK
350
46
  3
PUCSORGBOTTOM
350
42
  3
PUCSORGFRONT
350
45
  3
PUCSORGLEFT
350
43
  3
PUCSORGRIGHT
350
44
  3
PUCSORGTOP
350
41
  3
PUCSORTHOREF
350
3E
  3
PUCSORTHOVIEW
350
3F
  3
STYLESHEET
350
33
  3
TSTACKALIGN
350
30
  3
TSTACKSIZE
350
31
  3
UCSBASE
350
49
  3
UCSORGBACK
350
4F
  3
UCSORGBOTTOM
350
4B
  3
UCSORGFRONT
350
4E
  3
UCSORGLEFT
350
4C
  3
UCSORGRIGHT
350
4D
  3
UCSORGTOP
350
4A
  3
UCSORTHOREF
350
47
  3
UCSORTHOVIEW
350
48
  3
VERSIONGUID
350
3B
  0
XRECORD
  5
53
102
{ACAD_REACTORS
330
52
102
}
330
52
100
AcDbXrecord
340
1F
  0
XRECORD
  5
51
102
{ACAD_REACTORS
330
50
102
}
330
50
100
AcDbXrecord
340
1B
  0
MLINESTYLE
  5
18
102
{ACAD_REACTORS
330
17
102
}
330
17
100
AcDbMlineStyle
  2
STANDARD
 70
     0
  3

 62
   256
 51
90.0
 52
90.0
 71
     2
 49
0.5
 62
   256
  6
BYLAYER
 49
-0.5
 62
   256
  6
BYLAYER
  0
ACDBPLACEHOLDER
  5
F
102
{ACAD_REACTORS
330
E
102
}
330
E
100
AcDbPlaceHolder
280
     0
  0
XRECORD
  5
39
102
{ACAD_REACTORS
330
2F
102
}
330
2F
100
AcDbXrecord
 90
        0
  0
XRECORD
  5
3D
102
{ACAD_REACTORS
330
2F
102
}
330
2F
100
AcDbXrecord
1000
DSTYLE
1002
{
1070
   278
 70
    44
1002
}
  0
XRECORD
  5
3A
102
{ACAD_REACTORS
330
2F
102
}
330
2F
100
AcDbXrecord
  1
{705446A6-11D0-4548-8F8C-A97DCA50327D}
  0
XRECORD
  5
32
102
{ACAD_REACTORS
330
2F
102
}
330
2F
100
AcDbXrecord
  1

  0
XRECORD
  5
38
102
{ACAD_REACTORS
330
2F
102
}
330
2F
100
AcDbXrecord
 90
        4
  0
XRECORD
  5
34
102
{ACAD_REACTORS
330
2F
102
}
330
2F
100
AcDbXrecord
340
1A
  0
XRECORD
  5
37
102
{ACAD_REACTORS
330
2F
102
}
330
2F
100
AcDbXrecord
 90
    10781
  0
XRECORD
  5
35
102
{ACAD_REACTORS
330
2F
102
}
330
2F
100
AcDbXrecord
340
19
  0
XRECORD
  5
36
102
{ACAD_REACTORS
330
2F
102
}
330
2F
100
AcDbXrecord
340
E
  0
XRECORD
  5
3C
102
{ACAD_REACTORS
330
2F
102
}
330
2F
100
AcDbXrecord
 40
0.0
  0
XRECORD
  5
40
102
{ACAD_REACTORS
330
2F
102
}
330
2F
100
AcDbXrecord
340
0
  0
XRECORD
  5
46
102
{ACAD_REACTORS
330
2F
102
}
330
2F
100
AcDbXrecord
 10
0.0
 20
0.0
 30
0.0
  0
XRECORD
  5
42
102
{ACAD_REACTORS
330
2F
102
}
330
2F
100
AcDbXrecord
 10
0.0
 20
0.0
 30
0.0
  0
XRECORD
  5
45
102
{ACAD_REACTORS
330
2F
102
}
330
2F
100
AcDbXrecord
 10
0.0
 20
0.0
 30
0.0
  0
XRECORD
  5
43
102
{ACAD_REACTORS
330
2F
102
}
330
2F
100
AcDbXrecord
 10
0.0
 20
0.0
 30
0.0
  0
XRECORD
  5
44
102
{ACAD_REACTORS
330
2F
102
}
330
2F
100
AcDbXrecord
 10
0.0
 20
0.0
 30
0.0
  0
XRECORD
  5
41
102
{ACAD_REACTORS
330
2F
102
}
330
2F
100
AcDbXrecord
 10
0.0
 20
0.0
 30
0.0
  0
XRECORD
  5
3E
102
{ACAD_REACTORS
330
2F
102
}
330
2F
100
AcDbXrecord
340
0
  0
XRECORD
  5
3F
102
{ACAD_REACTORS
330
2F
102
}
330
2F
100
AcDbXrecord
 70
     0
  0
XRECORD
  5
33
102
{ACAD_REACTORS
330
2F
102
}
330
2F
100
AcDbXrecord
  1

  0
XRECORD
  5
30
102
{ACAD_REACTORS
330
2F
102
}
330
2F
100
AcDbXrecord
 90
        1
  0
XRECORD
  5
31
102
{ACAD_REACTORS
330
2F
102
}
330
2F
100
AcDbXrecord
 90
       70
  0
XRECORD
  5
49
102
{ACAD_REACTORS
330
2F
102
}
330
2F
100
AcDbXrecord
340
0
  0
XRECORD
  5
4F
102
{ACAD_REACTORS
330
2F
102
}
330
2F
100
AcDbXrecord
 10
0.0
 20
0.0
 30
0.0
  0
XRECORD
  5
4B
102
{ACAD_REACTORS
330
2F
102
}
330
2F
100
AcDbXrecord
 10
0.0
 20
0.0
 30
0.0
  0
XRECORD
  5
4E
102
{ACAD_REACTORS
330
2F
102
}
330
2F
100
AcDbXrecord
 10
0.0
 20
0.0
 30
0.0
  0
XRECORD
  5
4C
102
{ACAD_REACTORS
330
2F
102
}
330
2F
100
AcDbXrecord
 10
0.0
 20
0.0
 30
0.0
  0
XRECORD
  5
4D
102
{ACAD_REACTORS
330
2F
102
}
330
2F
100
AcDbXrecord
 10
0.0
 20
0.0
 30
0.0
  0
XRECORD
  5
4A
102
{ACAD_REACTORS
330
2F
102
}
330
2F
100
AcDbXrecord
 10
0.0
 20
0.0
 30
0.0
  0
XRECORD
  5
47
102
{ACAD_REACTORS
330
2F
102
}
330
2F
100
AcDbXrecord
340
0
  0
XRECORD
  5
48
102
{ACAD_REACTORS
330
2F
102
}
330
2F
100
AcDbXrecord
 70
     0
  0
XRECORD
  5
3B
102
{ACAD_REACTORS
330
2F
102
}
330
2F
100
AcDbXrecord
  1
{33328E3A-B6B8-4979-86B7-D70DEC2867C2}
  0
ENDSEC
  0
EOF
